<?xml version="1.0" standalone="no"?>
<!DOCTYPE svg PUBLIC "-//W3C//DTD SVG 20010904//EN"
 "http://www.w3.org/TR/2001/REC-SVG-20010904/DTD/svg10.dtd">
<svg version="1.0" xmlns="http://www.w3.org/2000/svg"
 width="612.000000pt" height="408.000000pt" viewBox="0 0 612.000000 408.000000"
 preserveAspectRatio="xMidYMid meet">

<g transform="translate(0.000000,408.000000) scale(0.100000,-0.100000)"
fill="#000000" stroke="none">
<path d="M4682 4018 c-5 -7 -13 -24 -17 -38 -8 -28 -90 -168 -136 -233 -16
-23 -40 -58 -53 -77 -48 -71 -214 -257 -274 -305 -64 -52 -83 -85 -62 -110 22
-27 54 -16 105 33 102 98 200 227 333 437 29 47 123 246 128 274 7 32 -5 41
-24 19z"/>
<path d="M3869 3733 c-78 -82 -189 -236 -286 -398 -25 -41 -70 -131 -77 -152
-11 -34 22 -30 37 5 47 106 281 398 395 491 53 44 65 74 40 99 -25 25 -55 12
-109 -45z"/>
<path d="M2755 3409 c-193 -19 -438 -100 -601 -199 -36 -22 -68 -40 -70 -40
-2 0 -46 -32 -97 -72 -163 -127 -283 -259 -395 -437 -21 -34 -90 -173 -107
-216 -86 -221 -106 -320 -112 -565 -5 -194 -3 -212 22 -335 33 -159 66 -258
134 -395 69 -141 114 -211 206 -318 79 -93 221 -225 276 -257 9 -5 41 -27 70
-47 145 -98 400 -197 582 -223 44 -7 49 -6 45 11 -2 13 -18 21 -58 30 -170 35
-388 138 -560 263 -74 54 -244 217 -288 276 -125 167 -205 314 -257 470 -56
167 -78 306 -79 485 0 185 20 318 76 485 49 148 140 322 223 426 11 14 29 38
40 53 24 33 123 135 186 190 49 44 175 136 186 136 3 0 14 6 22 14 9 7 50 30
91 51 41 20 84 42 94 47 47 25 200 72 306 94 157 32 455 34 599 4 111 -24 121
-24 121 -7 0 18 -194 65 -319 77 -118 11 -207 11 -336 -1z"/>
<path d="M4400 3084 c-208 -84 -469 -231 -454 -255 4 -7 12 -5 22 3 16 13 75
40 187 86 48 20 156 56 315 104 81 25 96 43 64 79 -22 25 -33 24 -134 -17z"/>
<path d="M3508 3003 c-9 -10 -30 -45 -48 -78 -46 -86 -74 -135 -98 -175 -12
-19 -31 -53 -43 -75 -12 -22 -47 -78 -78 -125 -30 -47 -60 -92 -66 -101 -27
-43 -54 -80 -108 -147 -37 -46 -56 -77 -50 -83 19 -19 232 236 376 451 20 30
58 87 85 125 68 100 102 161 102 182 0 41 -45 57 -72 26z"/>
<path d="M3059 2863 c-36 -43 -147 -350 -223 -613 -24 -84 -66 -298 -66 -336
0 -24 -5 -34 -15 -34 -19 0 -19 42 0 220 15 139 40 253 69 310 9 18 16 41 16
52 0 21 -41 44 -63 35 -48 -18 -84 -267 -72 -489 7 -125 6 -128 -14 -128 -12
0 -21 3 -21 8 0 4 -7 54 -15 112 -8 58 -15 148 -15 201 0 136 27 377 52 457
24 78 26 111 7 123 -45 28 -71 -7 -95 -127 -36 -188 -23 -544 27 -738 12 -46
0 -68 -29 -50 -54 34 -112 251 -112 419 0 81 -3 107 -16 119 -20 21 -37 20
-57 -2 -22 -24 -21 -59 4 -188 27 -143 78 -268 135 -337 48 -57 21 -65 -31 -9
-114 120 -216 361 -245 577 -15 110 -23 127 -57 123 -44 -5 -49 -27 -29 -123
46 -223 163 -463 286 -584 46 -45 56 -61 48 -74 -5 -9 -19 -17 -31 -17 -37 1
-157 47 -221 86 -72 44 -71 43 -162 133 -39 39 -76 71 -82 71 -16 0 -42 -29
-42 -48 0 -23 52 -78 121 -129 71 -53 232 -122 316 -136 48 -9 63 -15 61 -27
-5 -23 -171 -20 -267 5 l-73 19 -19 -23 c-23 -28 -23 -32 -5 -57 13 -18 27
-19 188 -18 161 1 171 0 138 -14 -19 -8 -73 -17 -119 -20 -65 -4 -88 -9 -103
-24 -17 -17 -18 -22 -5 -41 8 -12 24 -23 36 -25 27 -4 156 33 190 55 24 16 49
5 36 -16 -8 -14 -137 -75 -193 -92 -54 -16 -70 -41 -47 -75 8 -13 22 -24 30
-24 19 0 140 77 189 120 20 18 39 31 41 28 3 -2 -11 -33 -29 -69 -178 -335
-30 -790 314 -963 145 -74 347 -125 491 -126 149 0 367 52 493 120 75 40 129
73 144 87 7 7 17 13 22 13 29 0 350 354 350 386 0 4 6 15 14 23 20 23 110 204
140 281 133 347 132 775 -4 1120 -56 144 -188 370 -216 370 -16 0 -19 -26 -5
-35 10 -5 111 -183 111 -194 0 -3 7 -19 16 -36 45 -85 107 -299 125 -435 18
-133 6 -402 -24 -525 -48 -201 -140 -415 -227 -530 -14 -18 -34 -46 -45 -61
-102 -142 -293 -308 -443 -383 -80 -41 -184 -70 -309 -87 -116 -16 -130 -16
-243 -1 -370 52 -590 226 -665 525 -21 82 -20 209 1 302 14 64 38 130 47 130
1 0 1 -46 -1 -103 -6 -156 15 -206 78 -190 26 7 26 46 1 104 -11 24 -22 79
-26 122 -8 79 -7 79 16 75 21 -3 25 -11 35 -68 18 -110 113 -260 164 -260 18
0 50 30 50 46 0 5 -25 33 -55 63 -59 58 -104 126 -115 178 -9 37 -8 38 36 47
28 6 33 3 56 -31 49 -74 169 -185 263 -244 64 -40 162 -80 179 -73 17 6 31 44
24 65 -2 6 -42 26 -88 44 -149 59 -274 141 -341 226 l-32 41 21 20 20 21 51
-48 c28 -26 61 -55 73 -64 38 -27 130 -81 137 -81 4 0 25 -9 47 -19 83 -41
164 -37 164 8 0 33 -19 43 -101 57 -139 25 -351 142 -334 187 9 21 24 22 53 1
40 -28 228 -123 288 -145 81 -30 272 -78 310 -79 32 0 44 13 44 50 0 24 -29
40 -70 40 -49 0 -216 39 -325 77 -93 32 -248 103 -269 124 -19 18 4 21 37 6
138 -66 482 -130 522 -97 20 17 19 57 -2 68 -10 5 -88 12 -173 15 -158 6 -297
30 -359 62 -39 20 -41 39 -3 31 84 -18 313 -47 412 -52 185 -11 260 6 260 56
0 36 -29 40 -186 24 -102 -11 -193 -14 -289 -10 -206 9 -232 14 -239 42 -4 13
-26 40 -51 61 -32 26 -45 45 -45 63 1 73 103 413 171 567 11 24 19 48 19 54 0
6 9 28 19 48 36 67 121 266 121 282 0 37 -46 52 -71 22z m-245 -1107 c32 -43
37 -73 21 -113 -20 -47 -32 -41 -37 20 -3 38 -12 64 -31 89 -15 19 -24 37 -21
40 11 12 46 -6 68 -36z"/>
<path d="M3630 2589 c-65 -80 -221 -236 -275 -274 -16 -11 -40 -29 -54 -41
-14 -11 -56 -40 -93 -64 -67 -42 -83 -60 -53 -60 43 0 279 149 394 249 108 93
221 211 221 230 0 25 -20 41 -49 41 -20 -1 -41 -20 -91 -81z"/>
<path d="M3990 2544 c-41 -30 -82 -58 -90 -62 -8 -4 -42 -25 -75 -47 -72 -48
-120 -75 -202 -116 -35 -17 -63 -37 -63 -45 0 -19 11 -18 83 12 180 75 423
198 465 237 26 24 28 40 6 61 -24 25 -43 18 -124 -40z"/>
<path d="M3550 2045 c-41 -21 -149 -62 -235 -89 -74 -23 -108 -30 -287 -60
-121 -20 -88 -29 83 -23 143 6 185 12 303 41 156 39 201 61 201 95 0 35 -33
53 -65 36z"/>
<path d="M4000 1955 c-113 -39 -265 -72 -372 -81 -88 -8 -106 -27 -37 -39 87
-15 429 27 511 62 48 20 59 50 28 75 -27 22 -14 23 -130 -17z"/>
</g>
</svg>
